<svg width="800" height="220" xmlns="http://www.w3.org/2000/svg" xmlns:svg="http://www.w3.org/2000/svg">
 <!-- http://www.clker.com/inc/svgedit/svg-editor.html -->
 <title>Docker mTLS Socket Proxy</title>
 <g>
  <title>Layer 1</title>
  <rect fill="#fff" stroke-width="1.5" x="321.44349" y="12" width="465.056547" height="194.999995" id="svg_4" stroke="#000"/>
  <rect fill="#fff" stroke-width="1.5" x="335.05587" y="86.703518" width="161.25438" height="102.412052" id="svg_5" stroke="#000"/>
  <rect stroke="#000" fill="#fff" stroke-width="1.5" x="11.5" y="93.08543" width="137.17094" height="99.19599" id="svg_3"/>
  <rect stroke="#000" fill="#fff" stroke-width="1.5" x="682.733596" y="115.68638" width="89.05466" height="73.48753" id="svg_1"/>
  <line stroke="#000" fill="none" stroke-width="2" stroke-dasharray="null" stroke-linejoin="null" stroke-linecap="null" x1="148.60891" y1="179.69233" x2="334.22862" y2="179.69233" id="svg_12"/>
  <text stroke="#000" transform="matrix(0.5713168697899611,0,0,0.7370406146148522,202.59059696797894,34.76994290025589) " xml:space="preserve" text-anchor="start" font-family="Monospace" font-size="24" y="181.95216" x="523.71615" stroke-width="0" fill="#000000" id="svg_18">/var/run/docker.sock</text>
  <text stroke="#000" transform="matrix(0.5713168697899611,0,0,0.7370406146148522,-160.23889844100023,10.07965713614412) " xml:space="preserve" text-anchor="start" font-family="Monospace" font-size="24" y="210.58766" x="567.70322" stroke-width="0" fill="#000000" id="svg_20">tcp://1.2.3.4:2376</text>
  <text stroke="#000" transform="matrix(0.5627806313853262,0,0,0.7260282417392471,9.220517884246654,109.42832614819483) " xml:space="preserve" text-anchor="start" font-family="Helvetica, Arial, sans-serif" font-size="24" y="99.553306" x="5.40673" stroke-width="0" fill="#000000" id="svg_23">Self-signed client certs</text>
  <text stroke="#000" transform="matrix(0.5627806313853262,0,0,0.7260282417392471,9.220517884246654,109.42832614819483) " xml:space="preserve" text-anchor="start" font-family="Helvetica, Arial, sans-serif" font-size="24" y="74.722869" x="592.650687" stroke-width="0" fill="#000000" id="svg_25">Self-signed server certs</text>
  <text stroke="#000" transform="matrix(0.4695017297919836,0,0,0.6056916254124249,94.92859007807354,96.34099982860117) " xml:space="preserve" text-anchor="start" font-family="Monospace" font-size="24" y="139.771517" x="527.84903" stroke-width="0" fill="#000000" id="svg_27">SAN IP: 1.2.3.4</text>
  <text stroke="#000" transform="matrix(0.4695017297919836,0,0,0.6056916254124249,94.92859007807354,96.34099982860117) " xml:space="preserve" text-anchor="start" font-family="Monospace" font-size="24" y="-58.700427" x="507.481727" stroke-width="0" fill="#000000" id="svg_29">IP Address: 1.2.3.4</text>
  <text stroke="#000" transform="matrix(0.4695017297919836,0,0,0.6056916254124249,94.92859007807354,96.34099982860117) " xml:space="preserve" text-anchor="start" font-family="Monospace" font-size="24" y="60.666436" x="527.85677" stroke-width="0" fill="#000000" id="svg_30">Published Port: 2376</text>
  <line stroke="#000" id="svg_7" fill="none" stroke-width="2" stroke-dasharray="null" stroke-linejoin="null" stroke-linecap="null" x1="496.00687" y1="179.69233" x2="681.62658" y2="179.69233"/>
  <text transform="matrix(0.9705052848023769,0,0,1.1767693596568423,7.326082731637346,2.23204498801171) " xml:space="preserve" text-anchor="start" font-family="Helvetica, Arial, sans-serif" font-size="24" y="32.911127" x="335.770666" stroke-width="0" fill="#000000" id="svg_28" stroke="#000">Host machine</text>
  <text transform="matrix(0.817226369701728,0,0,0.9993669115536817,7.796468371042163,48.51330178652644) " xml:space="preserve" text-anchor="start" font-family="Helvetica, Arial, sans-serif" font-size="24" id="svg_9" y="86.100384" x="31.1707" stroke-width="0" fill="#000000" stroke="#000">Docker CLI</text>
  <text transform="matrix(0.817226369701728,0,0,0.9993669115536817,7.796468371042163,48.51330178652644) " xml:space="preserve" text-anchor="start" font-family="Helvetica, Arial, sans-serif" font-size="24" y="120.730584" x="837.011526" stroke-width="0" fill="#000000" id="svg_6" stroke="#000">daemon</text>
  <text transform="matrix(0.817226369701728,0,0,0.9993669115536817,7.796468371042163,48.51330178652644) " xml:space="preserve" text-anchor="start" font-family="Helvetica, Arial, sans-serif" font-size="24" y="92.572024" x="843.595767" stroke-width="0" fill="#000000" id="svg_8" stroke="#000">Docker</text>
  <text transform="matrix(0.930180118673737,0,0,0.8961894715760365,-11.439124731943771,45.79986251688041) " xml:space="preserve" text-anchor="start" font-family="Helvetica, Arial, sans-serif" font-size="24" y="114.924002" x="551.758883" stroke-width="0" fill="#000000" id="svg_17" stroke="#000">Socket</text>
  <text transform="matrix(0.817226369701728,0,0,0.9993669115536817,7.796468371042163,48.51330178652644) " xml:space="preserve" text-anchor="start" font-family="Helvetica, Arial, sans-serif" font-size="24" y="96.535794" x="191.269845" stroke-width="0" fill="#000000" id="svg_19" stroke="#000">Mutual TLS</text>
  <text transform="matrix(0.817226369701728,0,0,0.9993669115536817,7.796468371042163,48.51330178652644) " xml:space="preserve" text-anchor="start" font-family="Helvetica, Arial, sans-serif" font-size="24" y="66.046054" x="409.878632" stroke-width="0" fill="#000000" id="svg_21" stroke="#000">Proxy container</text>
 </g>
</svg>
