<svg width="800" height="220" xmlns="http://www.w3.org/2000/svg" xmlns:svg="http://www.w3.org/2000/svg">
 <!-- http://www.clker.com/inc/svgedit/svg-editor.html -->
 <title>Docker mTLS Socket Proxy</title>
 <g>
  <title>Layer 1</title>
  <rect id="svg_4" height="190.999995" width="458.455751" y="14" x="327.044296" stroke-width="1.5" fill="#ddd" stroke="#222"/>
  <rect id="svg_5" height="100.311292" width="158.96561" y="87.171138" x="340.463468" stroke-width="1.5" fill="#ddd" stroke="#222"/>
  <rect id="svg_3" height="83.161203" width="143.223996" y="107.422139" x="12.5" stroke-width="1.5" fill="#ddd" stroke="#222"/>
  <rect id="svg_1" height="71.980094" width="87.79066" y="115.55948" x="683.206419" stroke-width="1.5" fill="#ddd" stroke="#222"/>
  <line id="svg_12" y2="178.252487" x2="339.64796" y1="178.252487" x1="156.66285" stroke-linecap="null" stroke-linejoin="null" stroke-dasharray="null" stroke-width="2" fill="none" stroke="#222"/>
  <text id="svg_18" fill="#222222" stroke-width="0" x="550.349301" y="173.641011" font-size="24" font-family="Monospace" text-anchor="start" xml:space="preserve" transform="matrix(0.5632078638875907,0,0,0.7219218336777484,199.87834592020135,38.30286693787707) " stroke="#222">/var/run/docker.sock</text>
  <text id="svg_20" fill="#222222" stroke-width="0" x="585.458654" y="207.817277" font-size="24" font-family="Monospace" text-anchor="start" xml:space="preserve" transform="matrix(0.5632078638875907,0,0,0.7219218336777484,-157.8013164006928,14.119048543866967) " stroke="#222">tcp://1.2.3.4:2376</text>
  <text id="svg_23" fill="#222222" stroke-width="0" x="14.419104" y="96.740902" font-size="24" font-family="Helvetica, Arial, sans-serif" text-anchor="start" xml:space="preserve" transform="matrix(0.554792784880249,0,0,0.7111353556168964,9.252871793098999,111.42979626175544) " stroke="#222">Self-signed client certs</text>
  <text id="svg_25" fill="#222222" stroke-width="0" x="610.675435" y="71.910465" font-size="24" font-family="Helvetica, Arial, sans-serif" text-anchor="start" xml:space="preserve" transform="matrix(0.554792784880249,0,0,0.7111353556168964,9.252871793098999,111.42979626175544) " stroke="#222">Self-signed server certs</text>
  <text id="svg_27" fill="#222222" stroke-width="0" x="527.84903" y="139.771517" font-size="24" font-family="Monospace" text-anchor="start" xml:space="preserve" transform="matrix(0.46283784062754146,0,0,0.5932671825547761,103.74444347722442,96.61092790194698) " stroke="#222">SAN IP: 1.2.3.4</text>
  <text id="svg_29" fill="#222222" stroke-width="0" x="507.481727" y="-55.329265" font-size="24" font-family="Monospace" text-anchor="start" xml:space="preserve" transform="matrix(0.46283784062754146,0,0,0.5932671825547761,103.74444347722442,96.61092790194698) " stroke="#222">IP Address: 1.2.3.4</text>
  <text id="svg_30" fill="#222222" stroke-width="0" x="527.85677" y="57.295274" font-size="24" font-family="Monospace" text-anchor="start" xml:space="preserve" transform="matrix(0.46283784062754146,0,0,0.5932671825547761,103.74444347722442,96.61092790194698) " stroke="#222">Published Port: 2376</text>
  <line y2="178.252487" x2="682.115115" y1="178.252487" x1="499.130005" stroke-linecap="null" stroke-linejoin="null" stroke-dasharray="null" stroke-width="2" fill="none" id="svg_7" stroke="#222"/>
  <text id="svg_28" fill="#222222" stroke-width="0" x="335.770666" y="34.646288" font-size="24" font-family="Helvetica, Arial, sans-serif" text-anchor="start" xml:space="preserve" transform="matrix(0.9567303842193825,0,0,1.1526305024360028,17.38532537185135,4.432413045588476) " stroke="#222">Host machine</text>
  <text fill="#222222" stroke-width="0" x="37.377046" y="98.359454" id="svg_9" font-size="24" font-family="Helvetica, Arial, sans-serif" text-anchor="start" xml:space="preserve" transform="matrix(0.8056270387421497,0,0,0.9788670786924146,7.8490345762898315,51.76431078687372) " stroke="#222">Docker CLI</text>
  <text id="svg_6" fill="#222222" stroke-width="0" x="849.424218" y="123.690573" font-size="24" font-family="Helvetica, Arial, sans-serif" text-anchor="start" xml:space="preserve" transform="matrix(0.8056270387421497,0,0,0.9788670786924146,7.8490345762898315,51.76431078687372) " stroke="#222">daemon</text>
  <text id="svg_8" fill="#222222" stroke-width="0" x="856.008459" y="95.532013" font-size="24" font-family="Helvetica, Arial, sans-serif" text-anchor="start" xml:space="preserve" transform="matrix(0.8056270387421497,0,0,0.9788670786924146,7.8490345762898315,51.76431078687372) " stroke="#222">Docker</text>
  <text id="svg_17" fill="#222222" stroke-width="0" x="557.211579" y="110.367187" font-size="24" font-family="Helvetica, Arial, sans-serif" text-anchor="start" xml:space="preserve" transform="matrix(0.9169775747415649,0,0,0.8778060988958521,-1.1135374656077879,47.10653180662077) " stroke="#222">Socket</text>
  <text id="svg_19" fill="#222222" stroke-width="0" x="203.682537" y="94.492616" font-size="24" font-family="Helvetica, Arial, sans-serif" text-anchor="start" xml:space="preserve" transform="matrix(0.8056270387421497,0,0,0.9788670786924146,7.8490345762898315,51.76431078687372) " stroke="#222">Mutual TLS</text>
  <text id="svg_21" fill="#222222" stroke-width="0" x="422.291324" y="61.959698" font-size="24" font-family="Helvetica, Arial, sans-serif" text-anchor="start" xml:space="preserve" transform="matrix(0.8056270387421497,0,0,0.9788670786924146,7.8490345762898315,51.76431078687372) " stroke="#222">Proxy container</text>
 </g>
</svg>
