<svg width="800" height="220" xmlns="http://www.w3.org/2000/svg" xmlns:svg="http://www.w3.org/2000/svg">
 <!-- http://www.clker.com/inc/svgedit/svg-editor.html -->
 <title>Docker mTLS Socket Proxy</title>
 <g>
  <title>Layer 1</title>
  <rect stroke="#000" id="svg_4" height="194.999995" width="465.056547" y="12" x="321.44349" stroke-width="1.5" fill="#fff"/>
  <rect stroke="#000" id="svg_5" height="102.412052" width="161.25438" y="86.703518" x="335.05587" stroke-width="1.5" fill="#fff"/>
  <rect id="svg_3" height="99.19599" width="137.17094" y="93.08543" x="11.5" stroke-width="1.5" fill="#fff" stroke="#000"/>
  <rect id="svg_1" height="73.48753" width="89.05466" y="115.68638" x="682.733596" stroke-width="1.5" fill="#fff" stroke="#000"/>
  <line id="svg_12" y2="179.69233" x2="334.22862" y1="179.69233" x1="148.60891" stroke-linecap="null" stroke-linejoin="null" stroke-dasharray="null" stroke-width="2" fill="none" stroke="#000"/>
  <text id="svg_18" fill="#000000" stroke-width="0" x="523.71615" y="181.95216" font-size="24" font-family="Monospace" text-anchor="start" xml:space="preserve" transform="matrix(0.5713168697899611,0,0,0.7370406146148522,202.59059696797894,34.76994290025589) " stroke="#000">/var/run/docker.sock</text>
  <text id="svg_20" fill="#000000" stroke-width="0" x="567.70322" y="210.58766" font-size="24" font-family="Monospace" text-anchor="start" xml:space="preserve" transform="matrix(0.5713168697899611,0,0,0.7370406146148522,-160.23889844100023,10.07965713614412) " stroke="#000">tcp://1.2.3.4:2376</text>
  <text id="svg_23" fill="#000000" stroke-width="0" x="5.40673" y="99.553306" font-size="24" font-family="Helvetica, Arial, sans-serif" text-anchor="start" xml:space="preserve" transform="matrix(0.5627806313853262,0,0,0.7260282417392471,9.220517884246654,109.42832614819483) " stroke="#000">Self-signed client certs</text>
  <text id="svg_25" fill="#000000" stroke-width="0" x="592.650687" y="74.722869" font-size="24" font-family="Helvetica, Arial, sans-serif" text-anchor="start" xml:space="preserve" transform="matrix(0.5627806313853262,0,0,0.7260282417392471,9.220517884246654,109.42832614819483) " stroke="#000">Self-signed server certs</text>
  <text id="svg_27" fill="#000000" stroke-width="0" x="527.84903" y="139.771517" font-size="24" font-family="Monospace" text-anchor="start" xml:space="preserve" transform="matrix(0.4695017297919836,0,0,0.6056916254124249,94.92859007807354,96.34099982860117) " stroke="#000">SAN IP: 1.2.3.4</text>
  <text id="svg_29" fill="#000000" stroke-width="0" x="507.481727" y="-58.700427" font-size="24" font-family="Monospace" text-anchor="start" xml:space="preserve" transform="matrix(0.4695017297919836,0,0,0.6056916254124249,94.92859007807354,96.34099982860117) " stroke="#000">IP Address: 1.2.3.4</text>
  <text id="svg_30" fill="#000000" stroke-width="0" x="527.85677" y="60.666436" font-size="24" font-family="Monospace" text-anchor="start" xml:space="preserve" transform="matrix(0.4695017297919836,0,0,0.6056916254124249,94.92859007807354,96.34099982860117) " stroke="#000">Published Port: 2376</text>
  <line y2="179.69233" x2="681.62658" y1="179.69233" x1="496.00687" stroke-linecap="null" stroke-linejoin="null" stroke-dasharray="null" stroke-width="2" fill="none" id="svg_7" stroke="#000"/>
  <text stroke="#000" id="svg_28" fill="#000000" stroke-width="0" x="335.770666" y="32.911127" font-size="24" font-family="Helvetica, Arial, sans-serif" text-anchor="start" xml:space="preserve" transform="matrix(0.9705052848023769,0,0,1.1767693596568423,7.326082731637346,2.23204498801171) ">Host machine</text>
  <text stroke="#000" fill="#000000" stroke-width="0" x="31.1707" y="86.100384" id="svg_9" font-size="24" font-family="Helvetica, Arial, sans-serif" text-anchor="start" xml:space="preserve" transform="matrix(0.817226369701728,0,0,0.9993669115536817,7.796468371042163,48.51330178652644) ">Docker CLI</text>
  <text stroke="#000" id="svg_6" fill="#000000" stroke-width="0" x="837.011526" y="125.733751" font-size="24" font-family="Helvetica, Arial, sans-serif" text-anchor="start" xml:space="preserve" transform="matrix(0.817226369701728,0,0,0.9993669115536817,7.796468371042163,48.51330178652644) ">daemon</text>
  <text stroke="#000" id="svg_8" fill="#000000" stroke-width="0" x="843.595767" y="97.575191" font-size="24" font-family="Helvetica, Arial, sans-serif" text-anchor="start" xml:space="preserve" transform="matrix(0.817226369701728,0,0,0.9993669115536817,7.796468371042163,48.51330178652644) ">Docker</text>
  <text stroke="#000" id="svg_17" fill="#000000" stroke-width="0" x="551.758883" y="114.924002" font-size="24" font-family="Helvetica, Arial, sans-serif" text-anchor="start" xml:space="preserve" transform="matrix(0.930180118673737,0,0,0.8961894715760365,-11.439124731943771,45.79986251688041) ">Socket</text>
  <text stroke="#000" id="svg_19" fill="#000000" stroke-width="0" x="191.269845" y="96.535794" font-size="24" font-family="Helvetica, Arial, sans-serif" text-anchor="start" xml:space="preserve" transform="matrix(0.817226369701728,0,0,0.9993669115536817,7.796468371042163,48.51330178652644) ">Mutual TLS</text>
  <text stroke="#000" id="svg_21" fill="#000000" stroke-width="0" x="409.878632" y="66.046054" font-size="24" font-family="Helvetica, Arial, sans-serif" text-anchor="start" xml:space="preserve" transform="matrix(0.817226369701728,0,0,0.9993669115536817,7.796468371042163,48.51330178652644) ">Proxy container</text>
 </g>
</svg>
